# xmcd CD database file
#
# Track frame offsets:
#	150
#	17727
#	35297
#	55525
#	76237
#
# Disc length: 1205 seconds
#
# Revision: 1
# Processed by: cddbd v1.5.2PL0 Copyright (c) Steve Scherf et al.
# Submitted via: CDex 1.51
#
DISCID=2b04b305
DTITLE=Billy Joel - To Make You Feel My Love
DYEAR=1900
DGENRE=Rock
TTITLE0=To Make You Feel My Love (Album Version)
TTITLE1=To Make You Feel My Love (Bare Bones Version)
TTITLE2=House Of Blue Lights
TTITLE3=Intro/Summer, Highland Falls (Live)
TTITLE4=Goodbye Yellow Brick Road (Live)
EXTD=
EXTT0=
EXTT1=
EXTT2=
EXTT3=
EXTT4=
PLAYORDER=
